<svg width="41" height="40" viewBox="0 0 41 40" fill="none" xmlns="http://www.w3.org/2000/svg">
<path d="M0.0163574 36.5215V21.9763L7.20522 29.3327L0.0163574 36.5215Z" fill="#FD4E05"/>
<path d="M40.2087 36.5215V21.9763L33.0199 29.3327L40.2087 36.5215Z" fill="#FFB222"/>
<path d="M22.8218 37.9778V39.0317C22.822 39.0448 22.8192 39.0579 22.8134 39.0698C22.8077 39.0818 22.7992 39.0923 22.7887 39.1008C22.7781 39.1093 22.7657 39.1153 22.7523 39.1187C22.7389 39.1219 22.7249 39.1223 22.7114 39.1199C21.9469 38.9901 21.1722 38.9223 20.3956 38.9173C19.6182 38.9223 18.8428 38.9901 18.0775 39.1199C18.064 39.1224 18.0501 39.122 18.0369 39.1188C18.0236 39.1154 18.0113 39.1093 18.0009 39.1008C17.9905 39.0923 17.9823 39.0817 17.9768 39.0696C17.9714 39.0577 17.9689 39.0447 17.9696 39.0317V37.9826C17.9696 37.971 17.972 37.9596 17.9767 37.9488C17.9815 37.9382 17.9884 37.9286 17.9972 37.9205C18.9104 37.1122 19.9867 35.2335 20.3128 34.6398C20.3206 34.6252 20.3325 34.613 20.3471 34.6044C20.3617 34.5959 20.3785 34.5914 20.3956 34.5914C20.4128 34.5914 20.4296 34.5959 20.4442 34.6044C20.4589 34.613 20.4707 34.6252 20.4784 34.6398C20.8047 35.2335 21.8784 37.1122 22.7942 37.9205C22.8106 37.9357 22.8205 37.9561 22.8218 37.9778Z" fill="#FFA211"/>
<path fill-rule="evenodd" clip-rule="evenodd" d="M0.0163574 0.521118V18.243L17.8735 35.8027L17.7429 35.6621C17.9974 35.2251 18.5322 34.3053 18.6349 34.1215C18.6458 34.102 18.6585 34.0773 18.6733 34.0485C18.8338 33.7377 19.2441 32.9428 20.2996 32.9194C21.453 32.8939 21.9191 33.8463 22.0179 34.0666C22.0917 34.2311 22.5892 35.0922 22.7245 35.2902L28.5493 29.3888L7.20521 7.87747L0.0163574 0.521118Z" fill="#FD4E05"/>
<path fill-rule="evenodd" clip-rule="evenodd" d="M40.2098 3.37563V4.927L24.1989 20.4868L23.4448 19.6683L40.2098 3.37563ZM24.7459 21.0804L40.2098 6.05222V7.60194L25.4992 21.898L24.7459 21.0804ZM26.0462 22.4917L26.7998 23.3097L40.2098 10.2776V8.72716L26.0462 22.4917ZM28.1017 24.7227L27.3468 23.9034L40.2098 11.4029V12.9557L28.1017 24.7227ZM28.6486 25.3164L29.4013 26.1333L40.2098 15.6293V14.081L28.6486 25.3164ZM30.702 27.5451L29.9482 26.7269L40.2098 16.7545V18.243L33.8749 24.4616L30.702 27.5451ZM40.2098 2.25041L22.8978 19.0746L22.1316 18.243L33.0209 7.87748L40.2098 0.521118V2.25041Z" fill="url(#paint0_linear_141_5425)"/>
<defs>
<linearGradient id="paint0_linear_141_5425" x1="42.5998" y1="6.18415" x2="23.6054" y2="25.2084" gradientUnits="userSpaceOnUse">
<stop stop-color="#FF5C00"/>
<stop offset="1" stop-color="#FFC328"/>
</linearGradient>
</defs>
</svg>